<svg width="58" height="55" viewBox="0 0 58 55" fill="none" xmlns="http://www.w3.org/2000/svg">
<rect width="58" height="55" rx="27.5" fill="black" fill-opacity="0.01"/>
<path d="M29.5 43.75C39.8553 43.75 48.25 36.4746 48.25 27.5C48.25 18.5254 39.8553 11.25 29.5 11.25C19.1447 11.25 10.75 18.5254 10.75 27.5C10.75 36.4746 19.1447 43.75 29.5 43.75Z" fill="#0077B5"/>
<path fill-rule="evenodd" clip-rule="evenodd" d="M24.6013 19.6057C24.6013 20.6173 23.7125 21.436 22.3227 21.436C20.9869 21.436 20.0981 20.6173 20.1257 19.6057C20.0981 18.5449 20.9868 17.75 22.3493 17.75C23.7125 17.75 24.5747 18.5449 24.6013 19.6057ZM20.2374 34.6655V22.8819H24.4629V34.6647L20.2374 34.6655Z" fill="white"/>
<path fill-rule="evenodd" clip-rule="evenodd" d="M27.8494 26.6425C27.8494 25.1728 27.7935 23.9197 27.7376 22.8835H31.4079L31.603 24.4978H31.6865C32.2426 23.7506 33.6324 22.6191 35.8845 22.6191C38.6643 22.6191 40.7495 24.2095 40.7495 27.6779V34.6671H36.524V28.1368C36.524 26.618 35.9129 25.5824 34.3837 25.5824C33.2156 25.5824 32.521 26.2812 32.2434 26.9554C32.1317 27.1968 32.0766 27.5335 32.0766 27.8716V34.6671H27.851V26.6425H27.8494Z" fill="white"/>
</svg>
